<?xml version="1.0" encoding="UTF-8" standalone="no"?>
<!--Generator: Gravit.io-->
<svg xmlns="http://www.w3.org/2000/svg" xmlns:xlink="http://www.w3.org/1999/xlink" style="isolation:isolate" viewBox="809.859 528.5 264.281 127" width="264.281pt" height="127pt">
    <defs>
        <clipPath id="_clipPath_zmHMKHXwEEDivBRhg1SQfwBEHx0wzvX8">
            <rect x="809.859" y="528.5" width="264.281" height="127"/>
        </clipPath>
    </defs>
    <g clip-path="url(#_clipPath_zmHMKHXwEEDivBRhg1SQfwBEHx0wzvX8)">
        <g>
            <g>
                <g>
                    <g>
                        <path d=" M 897.442 655.425 L 897.442 553.661 L 930.078 553.661 L 930.078 622.798 L 930.078 622.798 Q 930.078 639.298 924.118 647.063 L 924.118 647.063 L 924.118 647.063 Q 917.567 655.425 902.694 655.425 L 902.694 655.425 L 897.442 655.425 Z " fill="rgb(255,255,255)"/>
                        <path d=" M 809.859 622.798 L 809.859 553.661 L 842.496 553.661 L 842.496 655.425 L 837.244 655.425 L 837.244 655.425 Q 815.466 655.425 811.276 636.76 L 811.276 636.76 L 811.276 636.76 Q 809.859 630.712 809.859 622.798 L 809.859 622.798 Z " fill="rgb(255,255,255)"/>
                        <path d=" M 853.591 655.5 L 853.591 553.736 L 886.405 553.736 L 886.405 655.5 L 853.591 655.5 Z " fill="rgb(255,255,255)"/>
                        <path d=" M 966.492 558.813 L 966.492 558.813 L 966.492 558.813 Q 946.957 558.813 946.957 543.358 L 946.957 543.358 L 946.957 543.358 Q 946.957 535.444 951.62 531.972 L 951.62 531.972 L 951.62 531.972 Q 956.282 528.5 965.843 528.5 L 965.843 528.5 L 965.843 528.5 Q 975.404 528.5 979.948 531.972 L 979.948 531.972 L 979.948 531.972 Q 984.493 535.444 984.493 543.395 L 984.493 543.395 L 984.493 543.395 Q 984.493 551.347 980.273 555.08 L 980.273 555.08 L 980.273 555.08 Q 976.053 558.813 966.492 558.813 Z " fill="rgb(255,255,255)"/>
                        <path d=" M 950.262 655.425 L 950.262 579.345 L 982.014 579.345 L 982.014 655.425 L 950.262 655.425 Z " fill="rgb(255,255,255)"/>
                        <path d=" M 998.362 655.425 L 998.362 541.118 L 1030.054 541.118 L 1030.054 655.425 L 998.362 655.425 Z " fill="rgb(255,255,255)"/>
                        <path d=" M 1038.671 593.232 L 1038.671 593.232 L 1038.671 593.232 Q 1038.671 585.766 1044.101 581.809 L 1044.101 581.809 L 1044.101 581.809 Q 1048.94 578.3 1056.553 578.3 L 1056.553 578.3 L 1056.553 578.3 Q 1068.416 578.3 1072.665 586.438 L 1072.665 586.438 L 1072.665 586.438 Q 1074.141 589.275 1074.141 593.232 L 1074.141 593.232 L 1074.141 593.232 Q 1074.141 600.773 1069.065 604.805 L 1069.065 604.805 L 1069.065 604.805 Q 1064.462 608.538 1056.966 608.538 L 1056.966 608.538 L 1056.966 608.538 Q 1044.986 608.538 1040.264 600.026 L 1040.264 600.026 L 1040.264 600.026 Q 1038.671 597.189 1038.671 593.232 Z " fill="rgb(255,255,255)"/>
                        <path d=" M 1040.914 655.425 L 1040.914 617.422 L 1046.225 617.422 L 1046.225 617.422 Q 1067.944 617.422 1072.193 636.013 L 1072.193 636.013 L 1072.193 636.013 Q 1073.55 642.136 1073.55 650.05 L 1073.55 650.05 L 1073.55 655.425 L 1040.914 655.425 Z " fill="rgb(255,255,255)"/>
                    </g>
                </g>
            </g>
        </g>
    </g>
</svg>
